#!OML:ASF F:\VICON\USERDATA\INSTALL\Justin_Nancy\Justin_Nancy.ASF
:FULLY-SPECIFIED
:DEGREES
254
root -1.01544 17.3442 5.21579 -5.83736 -45.9139 8.52086
lowerback 7.68164 -0.671774 -5.7119
upperback 0.699377 -1.34867 1.1329
thorax -3.42556 -0.585887 4.53622
lowerneck -16.7916 -3.26947 -9.84673
upperneck 22.1761 -3.12885 4.6927
head 10.081 -1.77741 2.86742
rclavicle 8.3092e-014 -7.95139e-015
rhumerus -36.5455 -16.8023 -75.1388
rradius 29.335
rwrist 6.26633
rhand -12.7975 14.7393
rfingers 7.12502
rthumb 13.2884 -14.8171
lclavicle 8.3092e-014 -7.95139e-015
lhumerus -26.8463 6.2681 83.0917
lradius 29.5147
lwrist -8.5048
lhand -16.6155 24.8724
lfingers 7.12502
lthumb 9.60631 54.6334
rfemur -32.0416 -1.84326 16.2387
rtibia 36.7406
rfoot -7.97184 -6.49967
rtoes 6.11047
lfemur -1.8551 -2.72286 -29.2437
ltibia 22.4496
lfoot -16.0489 -12.2304
ltoes 17.9507
255
root -1.13261 17.3397 5.31187 -5.75942 -45.9735 8.7015
lowerback 7.34001 -0.645816 -5.85456
upperback 0.759248 -1.30775 1.01891
thorax -3.1763 -0.574022 4.48404
lowerneck -16.7656 -3.2856 -9.67037
upperneck 21.967 -3.22724 4.82051
head 10.0065 -1.78851 2.86771
rclavicle -7.95139e-015 5.56597e-015
rhumerus -36.5633 -17.0666 -75.1949
rradius 29.1033
rwrist 5.9313
rhand -12.9369 14.5325
rfingers 7.12502
rthumb 13.154 -15.0326
lclavicle -7.95139e-015 5.56597e-015
lhumerus -26.2898 5.7242 83.0345
lradius 29.8789
lwrist -8.29255
lhand -16.7984 25.3298
lfingers 7.12502
lthumb 9.42986 55.0989
rfemur -31.8127 -1.41803 16.0295
rtibia 33.5315
rfoot -7.71795 -6.97541
rtoes 4.16697
lfemur -1.30467 -2.68924 -29.351
ltibia 21.9318
lfoot -16.0633 -12.3862
ltoes 19.0637
256
root -1.24256 17.3305 5.40876 -5.38635 -46.0748 8.38058
lowerback 7.26761 -0.665595 -5.6727
upperback 0.677922 -1.31255 1.12386
thorax -3.22142 -0.574453 4.49092
lowerneck -16.5909 -3.2397 -9.74062
upperneck 21.8565 -3.17304 4.87527
head 9.93185 -1.76351 2.90598
rclavicle 8.88567e-014 1.35174e-014
rhumerus -36.7257 -16.9885 -75.0829
rradius 28.888
rwrist 5.50979
rhand -13.0882 13.9379
rfingers 7.12502
rthumb 13.0082 -15.6365
lclavicle 8.88567e-014 1.35174e-014
lhumerus -26.088 5.31124 83.1688
lradius 30.1808
lwrist -8.2567
lhand -17.4905 25.1253
lfingers 7.12502
lthumb 8.76206 54.9234
rfemur -31.4412 -0.983103 16.2163
rtibia 30.3644
rfoot -7.59024 -7.44343
rtoes 2.90441
lfemur -0.590405 -2.50675 -29.1134
ltibia 21.3885
lfoot -16.3281 -12.2037
ltoes 17.989
257
root -1.35512 17.3317 5.50641 -5.25672 -46.0921 8.41597
lowerback 7.21009 -0.695358 -5.84097
upperback 0.573761 -1.36056 1.22064
thorax -3.28586 -0.590461 4.69241
lowerneck -16.4088 -3.30141 -10.0544
upperneck 21.7719 -3.21808 4.98027
head 9.87986 -1.79961 2.98916
rclavicle 3.39922e-014 -9.54166e-015
rhumerus -36.887 -17.2165 -74.7217
rradius 28.5016
rwrist 5.66749
rhand -12.9536 14.1582
rfingers 7.12502
rthumb 13.1379 -15.4079
lclavicle 3.39922e-014 -9.54166e-015
lhumerus -25.9848 5.06021 83.3251
lradius 30.3887
lwrist -8.50922
lhand -18.0811 24.4225
lfingers 7.12502
lthumb 8.19208 54.2437
rfemur -30.9406 -0.322835 15.9555
rtibia 27.2193
rfoot -7.98151 -8.20085
rtoes 5.86683
lfemur 0.040194 -2.20977 -29.1444
ltibia 20.9497
lfoot -16.358 -12.1438
ltoes 17.4269
258
root -1.4726 17.3403 5.60655 -5.16695 -46.1061 8.36015
lowerback 7.05445 -0.691137 -5.80639
upperback 0.600923 -1.34377 1.17079
thorax -3.17435 -0.587308 4.61456
lowerneck -16.4973 -3.40733 -10.0793
upperneck 21.8921 -3.39441 5.14019
head 9.95704 -1.86629 3.02723
rclavicle 2.41523e-014 -1.03368e-014
rhumerus -37.0006 -18.4207 -74.2418
rradius 27.9412
rwrist 6.7998
rhand -12.5432 14.8062
rfingers 7.12502
rthumb 13.5335 -14.734
lclavicle 2.41523e-014 -1.03368e-014
lhumerus -25.6635 4.54371 83.2842
lradius 30.6005
lwrist -8.47873
lhand -18.1424 24.0514
lfingers 7.12502
lthumb 8.13288 53.8749
rfemur -30.275 0.5362 15.6804
rtibia 24.2356
rfoot -8.77936 -9.31159
rtoes 4.89726
lfemur 0.802907 -1.72556 -29.0986
ltibia 20.4728
lfoot -16.4591 -12.0678
ltoes 16.5883
259
root -1.58568 17.3382 5.70935 -4.92077 -46.2117 7.96455
lowerback 6.92219 -0.682801 -5.37493
upperback 0.648174 -1.29088 1.15829
thorax -3.06707 -0.571347 4.34835
lowerneck -16.3791 -3.45395 -10.2641
upperneck 21.9088 -3.50138 5.44837
head 9.95854 -1.89856 3.15442
rclavicle 7.38485e-014 -5.56597e-015
rhumerus -37.2474 -19.0647 -73.9119
rradius 27.6315
rwrist 7.47748
rhand -12.212 15.1157
rfingers 7.12502
rthumb 13.8527 -14.403
lclavicle 7.38485e-014 -5.56597e-015
lhumerus -25.2382 4.14732 83.1851
lradius 30.7188
lwrist -8.49163
lhand -18.2518 24.0205
lfingers 7.12502
lthumb 8.0273 53.8481
rfemur -29.6547 1.38828 15.722
rtibia 21.567
rfoot -8.98093 -10.0271
rtoes 0.938168
lfemur 1.69887 -1.23338 -28.7682
ltibia 19.8672
lfoot -16.4089 -12.1686
ltoes 15.5229
260
root -1.70065 17.3335 5.8144 -5.01224 -46.2655 8.146
lowerback 6.81173 -0.776407 -5.58576
upperback 0.600517 -1.42354 1.23324
thorax -3.03264 -0.634157 4.55579
lowerneck -16.1554 -3.3567 -10.4988
upperneck 21.8121 -3.33349 5.484
head 9.87281 -1.83855 3.22903
rclavicle -7.73272e-014 7.95139e-016
rhumerus -37.3447 -18.1627 -74.118
rradius 27.5943
rwrist 6.32772
rhand -12.967 14.2806
rfingers 7.12502
rthumb 13.1251 -15.2863
lclavicle -7.73272e-014 7.95139e-016
lhumerus -25.0788 4.17558 83.2019
lradius 30.8852
lwrist -8.60101
lhand -19.1791 23.7698
lfingers 7.12502
lthumb 7.13224 53.6297
rfemur -29.1034 1.68518 15.4693
rtibia 19.0515
rfoot -8.1017 -9.10196
rtoes 2.81632
lfemur 2.48962 -0.980013 -28.9094
ltibia 19.4031
lfoot -16.261 -12.12
ltoes 14.1056
261
root -1.81684 17.3278 5.91538 -5.39229 -46.1646 8.71843
lowerback 6.7941 -0.918019 -6.12326
upperback 0.598742 -1.6534 1.18633
thorax -2.98364 -0.743735 4.83042
lowerneck -16.2668 -3.28183 -10.4009
upperneck 21.7853 -3.21083 5.36395
head 9.86941 -1.78498 3.18562
rclavicle 2.74323e-014 -1.59028e-014
rhumerus -37.3159 -17.1955 -74.5654
rradius 27.6415
rwrist 5.21033
rhand -13.9045 13.0801
rfingers 7.12502
rthumb 12.2212 -16.5429
lclavicle 2.74323e-014 -1.59028e-014
lhumerus -25.0114 4.29538 83.1662
lradius 31.0686
lwrist -9.01464
lhand -20.4761 23.181
lfingers 7.12502
lthumb 5.88014 53.0794
rfemur -28.557 1.63457 14.9941
rtibia 16.7957
rfoot -8.11387 -9.51873
rtoes -0.114582
lfemur 3.23665 -1.06383 -29.4066
ltibia 19.0751
lfoot -16.2763 -11.8217
ltoes 12.5633
262
root -1.93001 17.3183 6.01301 -4.99176 -46.2647 8.20068
lowerback 6.78587 -0.934369 -5.73662
upperback 0.596682 -1.64434 1.21946
thorax -2.99199 -0.743528 4.64516
lowerneck -16.2992 -3.33676 -10.1199
upperneck 21.7556 -3.31995 5.20434
head 9.86626 -1.82892 3.06629
rclavicle -6.15239e-014 -1.59028e-014
rhumerus -37.515 -17.9336 -74.0551
rradius 27.1138
rwrist 7.21867
rhand -13.0553 14.1327
rfingers 7.12502
rthumb 13.0399 -15.4397
lclavicle -6.15239e-014 -1.59028e-014
lhumerus -24.8276 4.18559 83.0645
lradius 31.4538
lwrist -8.77126
lhand -19.9083 23.3086
lfingers 7.12502
lthumb 6.42829 53.1911
rfemur -28.1457 2.27905 15.2701
rtibia 15.0821
rfoot -7.85084 -9.42318
rtoes -3.14712
lfemur 3.89892 -1.36756 -29.048
ltibia 18.7458
lfoot -16.1037 -11.5309
ltoes 13.1808
263
root -2.04382 17.2988 6.1137 -4.73904 -46.592 7.90378
lowerback 6.67037 -0.833376 -5.40855
upperback 0.568752 -1.47899 1.21533
thorax -2.98469 -0.664765 4.43823
lowerneck -16.2499 -3.37612 -10.109
upperneck 21.8145 -3.39281 5.22824
head 9.88437 -1.86124 3.06409
rclavicle 5.66536e-015 -2.38542e-015
rhumerus -37.7656 -17.94 -74.0078
rradius 27.0127
rwrist 7.23476
rhand -12.8339 14.0943
rfingers 7.12502
rthumb 13.2533 -15.4643
lclavicle 5.66536e-015 -2.38542e-015
lhumerus -24.6579 4.01164 82.9562
lradius 32.1886
lwrist -7.43952
lhand -18.0081 24.4971
lfingers 7.12502
lthumb 8.26251 54.3155
rfemur -27.9098 2.99576 15.4517
rtibia 13.9734
rfoot -7.69497 -9.25904
rtoes -5.77197
lfemur 4.6125 -1.15081 -28.8243
ltibia 18.4544
lfoot -16.3156 -11.179
ltoes 11.0856
264
root -2.15818 17.287 6.21597 -4.8218 -46.8502 8.12401
lowerback 6.49738 -0.753629 -5.43475
upperback 0.543068 -1.36699 1.15779
thorax -2.92824 -0.609993 4.37939
lowerneck -16.3277 -3.4442 -10.4326
upperneck 22.0013 -3.45869 5.46673
head 9.98237 -1.89473 3.19645
rclavicle -1.7175e-013 3.97569e-015
rhumerus -37.9263 -18.4045 -73.6025
rradius 26.668
rwrist 7.9449
rhand -12.2868 14.2177
rfingers 7.12502
rthumb 13.7807 -15.3059
lclavicle -1.7175e-013 3.97569e-015
lhumerus -24.4169 3.91476 82.911
lradius 32.5542
lwrist -6.66204
lhand -17.1387 24.7618
lfingers 7.12502
lthumb 9.10152 54.5454
rfemur -27.7914 3.24017 15.357
rtibia 13.4243
rfoot -7.80999 -8.72978
rtoes -6.64338
lfemur 5.17218 -0.957317 -29.009
ltibia 18.3118
lfoot -16.5254 -10.9056
ltoes 9.43093
